<svg width="41" height="40" viewBox="0 0 41 40" fill="none" xmlns="http://www.w3.org/2000/svg">
<g clip-path="url(#clip0_187_242)">
<path d="M31.5665 21.2507C31.6228 27.3041 36.8769 29.3185 36.9351 29.3441C36.8906 29.4861 36.0955 32.2147 34.167 35.0332C32.4997 37.4699 30.7694 39.8977 28.0437 39.9479C25.3654 39.9973 24.5041 38.3597 21.442 38.3597C18.3809 38.3597 17.424 39.8977 14.8887 39.9974C12.2576 40.097 10.254 37.3625 8.57305 34.9346C5.13805 29.9685 2.513 20.9016 6.03778 14.7812C7.78881 11.7418 10.918 9.81717 14.3145 9.76782C16.8982 9.71854 19.3367 11.506 20.9162 11.506C22.4947 11.506 25.4581 9.35642 28.5734 9.67211C29.8776 9.72639 33.5386 10.1989 35.8893 13.6399C35.6999 13.7573 31.5211 16.19 31.5665 21.2507ZM26.5329 6.3866C27.9298 4.69578 28.8699 2.342 28.6134 0C26.6 0.0809235 24.1653 1.3417 22.7211 3.0316C21.4268 4.52807 20.2933 6.92328 20.5992 9.21892C22.8434 9.39256 25.136 8.0785 26.5329 6.3866Z" fill="black"/>
</g>
<defs>
<clipPath id="clip0_187_242">
<rect width="40" height="40" fill="white" transform="translate(0.650391)"/>
</clipPath>
</defs>
</svg>
