<svg width="22" height="20" viewBox="0 0 22 20" fill="none" xmlns="http://www.w3.org/2000/svg">
<path d="M13.925 5.625C14.4083 6.10833 14.7625 6.65833 14.9875 7.275C15.2125 7.89167 15.2917 8.525 15.225 9.175C15.225 9.425 15.1333 9.6375 14.95 9.8125C14.7667 9.9875 14.55 10.075 14.3 10.075C14.05 10.075 13.8375 9.9875 13.6625 9.8125C13.4875 9.6375 13.4 9.425 13.4 9.175C13.4833 8.74167 13.4583 8.325 13.325 7.925C13.1917 7.525 12.9833 7.18333 12.7 6.9C12.4167 6.61667 12.075 6.4 11.675 6.25C11.275 6.1 10.85 6.06667 10.4 6.15C10.15 6.15 9.9375 6.05833 9.7625 5.875C9.5875 5.69167 9.5 5.475 9.5 5.225C9.5 4.975 9.5875 4.7625 9.7625 4.5875C9.9375 4.4125 10.15 4.325 10.4 4.325C11.0333 4.25833 11.6583 4.3375 12.275 4.5625C12.8917 4.7875 13.4417 5.14167 13.925 5.625ZM10.75 3.3C10.4333 3.3 10.125 3.3125 9.825 3.3375C9.525 3.3625 9.225 3.40833 8.925 3.475C8.64167 3.525 8.3875 3.48333 8.1625 3.35C7.9375 3.21667 7.78333 3.01667 7.7 2.75C7.61667 2.48333 7.64583 2.225 7.7875 1.975C7.92917 1.725 8.13333 1.575 8.4 1.525C8.78333 1.44167 9.17083 1.38333 9.5625 1.35C9.95417 1.31667 10.35 1.3 10.75 1.3C13.0333 1.3 15.1208 1.9 17.0125 3.1C18.9042 4.3 20.35 5.91667 21.35 7.95C21.4167 8.08333 21.4667 8.22083 21.5 8.3625C21.5333 8.50417 21.55 8.65 21.55 8.8C21.55 8.95 21.5375 9.09583 21.5125 9.2375C21.4875 9.37917 21.4417 9.51667 21.375 9.65C21.075 10.3167 20.7042 10.9417 20.2625 11.525C19.8208 12.1083 19.3333 12.6417 18.8 13.125C18.6 13.3083 18.3667 13.3833 18.1 13.35C17.8333 13.3167 17.6167 13.1833 17.45 12.95C17.2833 12.7167 17.2125 12.4625 17.2375 12.1875C17.2625 11.9125 17.375 11.6833 17.575 11.5C17.975 11.1167 18.3417 10.7 18.675 10.25C19.0083 9.8 19.3 9.31667 19.55 8.8C18.7167 7.11667 17.5125 5.77917 15.9375 4.7875C14.3625 3.79583 12.6333 3.3 10.75 3.3ZM10.75 16.3C8.51667 16.3 6.475 15.6958 4.625 14.4875C2.775 13.2792 1.31667 11.6917 0.25 9.725C0.166667 9.59167 0.104167 9.44583 0.0625 9.2875C0.0208333 9.12917 0 8.96667 0 8.8C0 8.63333 0.0166667 8.475 0.05 8.325C0.0833333 8.175 0.141667 8.025 0.225 7.875C0.558333 7.20833 0.945833 6.57083 1.3875 5.9625C1.82917 5.35417 2.33333 4.8 2.9 4.3L0.825 2.2C0.641667 2 0.554167 1.7625 0.5625 1.4875C0.570833 1.2125 0.666667 0.983333 0.85 0.8C1.03333 0.616666 1.26667 0.525 1.55 0.525C1.83333 0.525 2.06667 0.616666 2.25 0.8L19.25 17.8C19.4333 17.9833 19.5292 18.2125 19.5375 18.4875C19.5458 18.7625 19.45 19 19.25 19.2C19.0667 19.3833 18.8333 19.475 18.55 19.475C18.2667 19.475 18.0333 19.3833 17.85 19.2L14.35 15.75C13.7667 15.9333 13.175 16.0708 12.575 16.1625C11.975 16.2542 11.3667 16.3 10.75 16.3ZM4.3 5.7C3.81667 6.13333 3.375 6.60833 2.975 7.125C2.575 7.64167 2.23333 8.2 1.95 8.8C2.78333 10.4833 3.9875 11.8208 5.5625 12.8125C7.1375 13.8042 8.86667 14.3 10.75 14.3C11.0833 14.3 11.4083 14.2792 11.725 14.2375C12.0417 14.1958 12.3667 14.15 12.7 14.1L11.8 13.15C11.6167 13.2 11.4417 13.2375 11.275 13.2625C11.1083 13.2875 10.9333 13.3 10.75 13.3C9.5 13.3 8.4375 12.8625 7.5625 11.9875C6.6875 11.1125 6.25 10.05 6.25 8.8C6.25 8.61667 6.2625 8.44167 6.2875 8.275C6.3125 8.10833 6.35 7.93333 6.4 7.75L4.3 5.7Z" fill="#3E3E3E"/>
</svg>
