<svg width="41" height="40" viewBox="0 0 41 40" fill="none" xmlns="http://www.w3.org/2000/svg">
<path fill-rule="evenodd" clip-rule="evenodd" d="M20.342 0C9.09345 0 0 9.1666 0 20.507C0 29.572 5.82649 37.2451 13.9092 39.9611C14.9199 40.1654 15.2899 39.5199 15.2899 38.9771C15.2899 38.5016 15.2566 36.8721 15.2566 35.174C9.59794 36.3966 8.41965 32.7296 8.41965 32.7296C7.51013 30.353 6.16282 29.742 6.16282 29.742C4.31072 28.4859 6.29763 28.4859 6.29763 28.4859C8.3521 28.6216 9.43006 30.5909 9.43006 30.5909C11.2485 33.7142 14.1786 32.8317 15.3572 32.2883C15.5253 30.9643 16.0646 30.0475 16.6372 29.5384C12.1241 29.0629 7.3756 27.2976 7.3756 19.4205C7.3756 17.1797 8.18336 15.3465 9.46341 13.9206C9.26133 13.4115 8.55389 11.3061 9.66578 8.48803C9.66578 8.48803 11.3833 7.94465 15.2563 10.5931C16.9143 10.144 18.6244 9.91593 20.342 9.91392C22.0595 9.91392 23.8104 10.1518 25.4274 10.5931C29.3006 7.94465 31.0182 8.48803 31.0182 8.48803C32.1298 11.3059 31.422 13.4115 31.2203 13.9206C32.5339 15.3465 33.3083 17.1797 33.3083 19.4205C33.3083 27.2976 28.5598 29.0289 24.0131 29.5384C24.7542 30.1833 25.3938 31.4055 25.3938 33.3408C25.3938 36.0908 25.3604 38.2979 25.3604 38.9765C25.3604 39.5199 25.731 40.1654 26.7411 39.9614C34.8238 37.2449 40.6503 29.572 40.6503 20.507C40.6837 9.1666 31.5569 0 20.342 0Z" fill="black"/>
</svg>
