<svg width="40" height="40" viewBox="0 0 40 40" fill="none" xmlns="http://www.w3.org/2000/svg">
<g clip-path="url(#clip0_187_233)">
<path d="M39.5233 20.3742C39.5233 18.7354 39.3903 17.5395 39.1026 16.2994H20.3893V23.696H31.3736C31.1522 25.5342 29.9563 28.3024 27.2987 30.1626L27.2615 30.4102L33.1783 34.9939L33.5882 35.0348C37.3529 31.5578 39.5233 26.4421 39.5233 20.3742Z" fill="#4285F4"/>
<path d="M20.3893 39.8626C25.7707 39.8626 30.2884 38.0908 33.5883 35.0348L27.2988 30.1626C25.6157 31.3363 23.3568 32.1557 20.3893 32.1557C15.1186 32.1557 10.6452 28.6789 9.05055 23.8733L8.81681 23.8931L2.66444 28.6545L2.58398 28.8782C5.86154 35.389 12.5939 39.8626 20.3893 39.8626Z" fill="#34A853"/>
<path d="M9.05053 23.8733C8.62976 22.6331 8.38625 21.3043 8.38625 19.9313C8.38625 18.5582 8.62976 17.2295 9.02839 15.9893L9.01724 15.7252L2.78778 10.8873L2.58396 10.9843C1.23312 13.6861 0.458008 16.7202 0.458008 19.9313C0.458008 23.1424 1.23312 26.1763 2.58396 28.8782L9.05053 23.8733Z" fill="#FBBC05"/>
<path d="M20.3893 7.70672C24.1319 7.70672 26.6565 9.32336 28.096 10.6744L33.7211 5.18214C30.2664 1.97099 25.7707 0 20.3893 0C12.5939 0 5.86154 4.47343 2.58398 10.9843L9.02841 15.9893C10.6452 11.1837 15.1186 7.70672 20.3893 7.70672Z" fill="#EB4335"/>
</g>
<defs>
<clipPath id="clip0_187_233">
<rect width="40" height="40" fill="white"/>
</clipPath>
</defs>
</svg>
