<svg width="56" height="55" viewBox="0 0 56 55" fill="none" xmlns="http://www.w3.org/2000/svg">
<rect x="0.5" width="55" height="55" rx="27.5" fill="#3AF1A3"/>
<path d="M32.7251 17.2998C33.0501 17.4248 33.3566 17.575 33.644 17.75C33.9314 17.925 34.2129 18.1126 34.4878 18.3125L38.9497 16.4375L43.0747 23.5625L39.2124 26.4873C39.2374 26.6623 39.2495 26.8316 39.2495 26.9941V28.0059C39.2495 28.1684 39.2253 28.3377 39.1753 28.5127L43.0376 31.4375L38.9126 38.5625L34.4878 36.6875C34.2128 36.8875 33.9245 37.075 33.6245 37.25C33.3246 37.4249 33.025 37.5752 32.7251 37.7002L32.1245 42.5H23.8745L23.2749 37.7002C22.9499 37.5752 22.6435 37.425 22.356 37.25C22.0685 37.075 21.7872 36.8875 21.5122 36.6875L17.0503 38.5625L12.9253 31.4375L16.7876 28.5127C16.7626 28.3377 16.7495 28.1684 16.7495 28.0059V26.9941C16.7495 26.8316 16.7626 26.6623 16.7876 26.4873L12.9253 23.5625L17.0503 16.4375L21.5122 18.3125C21.7871 18.1126 22.0746 17.9249 22.3745 17.75C22.6745 17.575 22.9749 17.4248 23.2749 17.2998L23.8745 12.5H32.1245L32.7251 17.2998ZM26.0122 19.4746C25.2372 19.6746 24.5184 19.969 23.856 20.3564C23.1936 20.7439 22.5875 21.2128 22.0376 21.7627L18.3247 20.2246L16.8628 22.7754L20.0874 25.1748C19.9624 25.5498 19.8747 25.9249 19.8247 26.2998C19.7747 26.6748 19.7495 27.075 19.7495 27.5C19.7495 27.8999 19.7747 28.2872 19.8247 28.6621C19.8747 29.037 19.9625 29.4122 20.0874 29.7871L16.8628 32.2246L18.3247 34.7754L22.0376 33.2002C22.5875 33.775 23.1936 34.2561 23.856 34.6436C24.5184 35.031 25.2373 35.3254 26.0122 35.5254L26.4995 39.5H29.4624L29.9878 35.5254C30.7627 35.3254 31.4816 35.031 32.144 34.6436C32.8064 34.2561 33.4125 33.7872 33.9624 33.2373L37.6753 34.7754L39.1372 32.2246L35.9126 29.7871C36.0375 29.4373 36.1253 29.0689 36.1753 28.6816C36.2253 28.2941 36.2495 27.9 36.2495 27.5C36.2495 27.1 36.2253 26.7059 36.1753 26.3184C36.1253 25.9311 36.0375 25.5627 35.9126 25.2129L39.1372 22.7754L37.6753 20.2246L33.9624 21.7998C33.4125 21.225 32.8064 20.7439 32.144 20.3564C31.4816 19.969 30.7627 19.6746 29.9878 19.4746L29.4995 15.5H26.5376L26.0122 19.4746ZM28.0747 22.25C29.5247 22.25 30.7626 22.7622 31.7876 23.7871C32.8126 24.8121 33.3247 26.05 33.3247 27.5C33.3247 28.95 32.8126 30.1879 31.7876 31.2129C30.7626 32.2378 29.5247 32.75 28.0747 32.75C26.5998 32.7499 25.3557 32.2378 24.3433 31.2129C23.3308 30.1879 22.8247 28.95 22.8247 27.5C22.8247 26.05 23.3308 24.8121 24.3433 23.7871C25.3557 22.7622 26.5998 22.2501 28.0747 22.25ZM28.0005 24.5C26.3436 24.5 25.0005 25.8431 25.0005 27.5C25.0005 29.1569 26.3436 30.5 28.0005 30.5C29.6571 30.4997 31.0005 29.1567 31.0005 27.5C31.0005 25.8433 29.6571 24.5003 28.0005 24.5Z" fill="#38453C"/>
</svg>
