<?xml version="1.0" encoding="utf-8"?>
<svg xmlns="http://www.w3.org/2000/svg" viewBox="0.0003 0.0001 200.9997 35" width="201px" height="35px" preserveAspectRatio="none"><g id="object-0"><path d="M8.376 17.46a8.012 8.012 0 0 0-3.305.595 8.103 8.103 0 0 0-2.784 1.9A8.235 8.235 0 0 0 .5 22.835 8.32 8.32 0 0 0 .018 26.2a8.32 8.32 0 0 0 .478 3.371 8.234 8.234 0 0 0 1.785 2.885 8.103 8.103 0 0 0 2.786 1.904 8.02 8.02 0 0 0 3.309.595 8.01 8.01 0 0 0 3.309-.595 8.103 8.103 0 0 0 2.786-1.904 8.236 8.236 0 0 0 1.785-2.885 8.319 8.319 0 0 0 .478-3.371 8.319 8.319 0 0 0-.482-3.367 8.235 8.235 0 0 0-1.787-2.88 8.103 8.103 0 0 0-2.784-1.9 8.011 8.011 0 0 0-3.305-.593Zm0 13.328c-1.282 0-3.273-.867-3.273-4.587 0-3.72 1.99-4.587 3.273-4.587 1.283 0 3.287.867 3.287 4.587 0 3.72-1.99 4.616-3.287 4.616v-.03Zm20.564-3.975h-.044L24.09 17.88h-5.189v16.703h4.806v-9.128h.044l5.056 9.128h4.939V17.88H28.94v8.934Zm12.545 1.405h7.769v-3.974h-7.77v-2.092h8.566v-4.273H36.398v16.703H50.3v-4.288h-8.815v-2.076ZM64.938 17.88l-6.073 16.702h5.1l.737-2.375h5.248l.693 2.375h5.263l-6-16.703h-4.968Zm.87 10.741 1.592-5.184 1.474 5.14-3.066.044Zm18.958 2.196c-2.374 0-3.14-2.33-3.14-4.586 0-2.256.766-4.587 3.14-4.587a2.62 2.62 0 0 1 1.806.703c.492.457.795 1.087.847 1.762h4.939c-.428-4.198-2.949-6.604-7.445-6.618-5.085 0-8.358 3.48-8.358 8.74 0 4.945 2.948 8.755 8.358 8.755a6.991 6.991 0 0 0 2.793-.392 7.058 7.058 0 0 0 2.42-1.466 7.167 7.167 0 0 0 1.663-2.307 7.25 7.25 0 0 0 .642-2.783H87.45c-.31 1.57-.973 2.78-2.683 2.78Zm22.377-3.974a4.24 4.24 0 0 0 1.876-1.701 4.32 4.32 0 0 0 .585-2.482c0-3.167-2.491-4.78-5.38-4.78h-9.67v16.702h5.085v-5.826h2.698c2.005 0 2.137 1.673 2.285 3.257.048.869.187 1.73.413 2.57h5.085a10.904 10.904 0 0 1-.56-3.571 4.528 4.528 0 0 0-.606-2.443 4.451 4.451 0 0 0-1.811-1.726Zm-4.85-1.658h-2.654v-3.332h2.374c1.931 0 2.52.613 2.52 1.673 0 1.495-1.297 1.659-2.24 1.659Zm14.446 3.033h7.769v-3.974h-7.769v-2.092h8.565v-4.273h-13.65v16.703h13.901v-4.288h-8.816v-2.076Zm18.884 6.364h5.071v-6.364h6.575v-3.974h-6.575v-2.092h7.666v-4.273h-12.737v16.703Zm24.427-7.604c0 1.718 0 3.84-2.403 3.84s-2.477-2.122-2.477-3.84v-9.099h-5.026v10.25c0 4.63 2.491 6.857 7.518 6.857 5.026 0 7.503-2.226 7.503-6.858V17.88h-5.071l-.044 9.099Zm17.703-.165h-.059l-4.79-8.934H167.7v16.703h4.806v-9.128h.044l5.056 9.128h4.938V17.88h-4.791v8.934Zm15.788-8.933h-8.329v16.702h7.371c5.749 0 8.417-3.242 8.417-8.366-.029-4.273-1.961-8.337-7.459-8.337Zm-1.268 12.43h-1.99v-8.143h1.622a3.59 3.59 0 0 1 1.553.21 3.63 3.63 0 0 1 1.323.853c.375.378.663.834.846 1.337.183.503.256 1.04.214 1.574 0 1.569-.413 4.169-3.568 4.169Z" fill="#2b7f68"/><path d="M156.629 10.424c.363.356.602.823.678 1.33a14.04 14.04 0 0 1-.147 5.498c-.103.448-.251 2.047 0 2.33a.858.858 0 0 0 1.061.344c0-.254-.295-4.751 1.578-6.11 4.083 2.196 8.093 1.688 12.309-.987a11.96 11.96 0 0 1 7.179-1.808c-.62-2.136-2.949-6.424-9.789-6.902-9.08.284-10.672 4.93-10.053 9.129-.428.224-.56.448-1.283 1.494a6.18 6.18 0 0 0-.032-2.512 6.134 6.134 0 0 0-1.029-2.284 6.176 6.176 0 0 0 1.002-3.436c-.191-2.84-1.474-5.379-7.09-6.335-4.113-.538-7.371 0-9.582 3.974 0 0 1.135.224 2.83.642a34.424 34.424 0 0 1 5.558 3.646 7.346 7.346 0 0 0 3.154 1.877 7.274 7.274 0 0 0 3.656.11Z" fill="#2b7f68"/></g></svg>