<svg width="511" height="98" viewBox="0 0 511 98" fill="none" xmlns="http://www.w3.org/2000/svg">
<path d="M8.20366e-06 4.35889L5.74256e-06 23.0874L49.5925 72.5436C52.1313 75.076 52.1313 79.1812 49.5925 81.713C47.0534 84.2449 42.937 84.2449 40.3981 81.713L1.64074e-06 41.4256L0 50.2506C-4.92221e-06 75.5959 20.6028 96.142 46.0177 96.142C62.6525 96.142 77.2263 87.3397 85.31 74.1504L42.7576 31.7148C40.2187 29.1829 40.2187 25.0777 42.7576 22.5458C45.2966 20.0138 49.4132 20.0138 51.952 22.5458L90.7163 61.2041C91.5786 57.6942 92.0355 54.0256 92.0355 50.2506C92.0355 24.9053 71.4324 4.3589 46.0177 4.35889L8.20366e-06 4.35889Z" fill="#1D558B"/>
<path d="M132.204 10.5361C129.606 12.3206 127.431 14.4521 125.678 16.9304C122.952 20.8439 121.568 25.3752 121.527 30.5244V30.5862C121.527 36.4654 123.17 41.4104 126.457 45.4214L129.479 48.4349C133.627 51.8261 139.63 54.3624 147.488 56.0441L157.278 58.0829C163.184 59.3599 167.439 61.1312 170.042 63.397C172.644 65.6628 173.945 68.5052 173.945 71.924V71.9857C173.945 74.7047 173.098 77.1145 171.405 79.2157C169.856 81.185 167.744 82.7559 165.07 83.929L174.511 93.3443C178.412 91.205 181.507 88.4316 183.797 85.0236C186.606 80.863 188.01 75.9405 188.01 70.256V70.1938C188.01 63.6028 185.945 58.3304 181.814 54.3756C177.725 50.4208 170.991 47.455 161.615 45.4777L151.825 43.3151C146.084 42.0792 141.932 40.3697 139.371 38.1864C136.851 35.962 135.591 33.202 135.591 29.9065V29.8447C135.591 27.0435 136.377 24.6543 137.946 22.677C138.894 21.5132 140.036 20.5134 141.37 19.6778L132.204 10.5361Z" fill="#0082D9"/>
<path d="M156.741 16.6681L145.31 5.26909C148.017 4.76352 150.89 4.51074 153.932 4.51074C160.252 4.51074 165.766 5.60239 170.476 7.78563C175.225 9.92772 178.964 12.8525 181.69 16.5599C184.458 20.2674 186.006 24.4485 186.337 29.1034L186.399 29.9067H172.83L172.706 29.1034C172.334 26.673 171.322 24.5103 169.67 22.6154C168.059 20.7205 165.89 19.2375 163.164 18.1665C161.253 17.3749 159.112 16.8754 156.741 16.6681Z" fill="#0082D9"/>
<path d="M314.372 95.8374H300.865V28.7329H314.372V95.8374Z" fill="#0082D9"/>
<path d="M313.629 14.2737C311.976 15.9214 309.994 16.7453 307.68 16.7453C305.367 16.7453 303.385 15.9214 301.732 14.2737C300.08 12.6259 299.254 10.6486 299.254 8.34176C299.254 6.03489 300.08 4.07819 301.732 2.47163C303.385 0.823876 305.367 0 307.68 0C309.994 0 311.976 0.823876 313.629 2.47163C315.281 4.07819 316.107 6.03489 316.107 8.34176C316.107 10.6486 315.281 12.6259 313.629 14.2737Z" fill="#0082D9"/>
<path d="M270.393 95.837H283.838V2.40967H270.393V95.837Z" fill="#0082D9"/>
<path d="M148.188 85.4314L160.422 97.6324C158.336 97.8774 156.152 97.9999 153.87 97.9999C147.137 97.9999 141.271 96.9494 136.273 94.8487C131.275 92.7065 127.33 89.7405 124.439 85.9508C121.547 82.1612 119.895 77.7737 119.482 72.7894L119.42 71.9858H133.113L133.175 72.666C133.464 75.3433 134.518 77.6708 136.335 79.648C138.194 81.6256 140.672 83.1701 143.77 84.2824C145.158 84.7739 146.63 85.157 148.188 85.4314Z" fill="#0082D9"/>
<path fill-rule="evenodd" clip-rule="evenodd" d="M227.9 95.7137C225.38 96.5378 222.633 96.9495 219.659 96.9495C215.405 96.9495 211.584 96.1463 208.197 94.5396C204.851 92.8918 202.207 90.5648 200.266 87.5576C198.324 84.5505 197.354 81.0284 197.354 76.9913V76.8678C197.354 70.8535 199.522 66.1574 203.86 62.7793C208.238 59.3601 214.434 57.4035 222.448 56.9091L240.602 55.8257V49.9271C240.602 46.2195 239.445 43.3976 237.132 41.4616C234.861 39.4843 231.473 38.4956 226.971 38.4956C223.212 38.4956 220.134 39.1547 217.739 40.4729C215.384 41.7911 213.815 43.6448 213.03 46.034L212.906 46.2195H199.956L200.018 45.7869C200.555 42.0794 202.021 38.8664 204.417 36.1476C206.854 33.3876 210.035 31.2455 213.959 29.7213C217.925 28.1972 222.448 27.4351 227.529 27.4351C233.187 27.4351 237.979 28.3413 241.903 30.1539C245.869 31.9252 248.863 34.4998 250.888 37.8777C252.953 41.2144 253.986 45.2308 253.986 49.9271V95.8372H240.602V86.3214H239.611C238.289 88.5871 236.637 90.5231 234.654 92.1298C232.671 93.6954 230.42 94.89 227.9 95.7137ZM240.602 65.3121V71.0593C240.602 73.943 239.858 76.538 238.372 78.8449C236.884 81.1107 234.819 82.9232 232.175 84.2825C229.573 85.6006 226.599 86.2596 223.253 86.2596C219.659 86.2596 216.686 85.3948 214.331 83.6646C211.977 81.8932 210.799 79.4834 210.799 76.4351V76.3116C210.799 73.3045 211.894 70.977 214.083 69.3291C216.272 67.6401 219.68 66.6518 224.306 66.3632L240.602 65.3121Z" fill="#0082D9"/>
<path fill-rule="evenodd" clip-rule="evenodd" d="M358.971 97.1352C363.309 97.1352 367.129 96.579 370.434 95.4667C373.78 94.3544 376.63 92.8918 378.985 91.0793C381.38 89.2667 383.301 87.269 384.747 85.0856C386.193 82.8615 387.205 80.6369 387.783 78.4123L387.907 77.8561H374.895L374.648 78.3505C374.152 79.504 373.222 80.678 371.859 81.8726C370.537 83.0673 368.823 84.0767 366.716 84.9003C364.651 85.6829 362.173 86.0744 359.281 86.0744C355.522 86.0744 352.259 85.2507 349.492 83.6028C346.765 81.955 344.659 79.5657 343.171 76.4351C341.761 73.4667 341.02 69.924 340.947 65.807H388.589V61.1108C388.589 54.3552 387.37 48.4645 384.933 43.4389C382.496 38.372 379.005 34.438 374.461 31.6368C369.959 28.8357 364.569 27.4351 358.29 27.4351C352.052 27.4351 346.6 28.8975 341.932 31.8222C337.306 34.747 333.712 38.8252 331.151 44.0567C328.631 49.2881 327.372 55.4058 327.372 62.4084V62.4706C327.372 69.5555 328.631 75.6937 331.151 80.8838C333.712 86.0744 337.347 90.0909 342.056 92.9334C346.765 95.7343 352.403 97.1352 358.971 97.1352ZM343.171 48.0732C342.079 50.4029 341.388 53.1219 341.098 56.2295H375.305C375.021 52.994 374.327 50.2137 373.222 47.8878C371.777 44.7158 369.773 42.3472 367.212 40.7819C364.651 39.2165 361.698 38.4338 358.352 38.4338C355.006 38.4338 352.011 39.2577 349.367 40.9055C346.765 42.512 344.7 44.9012 343.171 48.0732Z" fill="#0082D9"/>
<path d="M414.847 95.8371H401.402V28.7327H414.847V38.8664H415.9C417.553 35.2825 419.99 32.4813 423.212 30.4628C426.434 28.4443 430.503 27.4351 435.418 27.4351C442.977 27.4351 448.76 29.5977 452.767 33.9231C456.774 38.2484 458.777 44.4069 458.777 52.3986V95.8371H445.27V55.5498C445.27 49.9477 444.092 45.7869 441.738 43.0681C439.425 40.3081 435.79 38.9282 430.833 38.9282C427.57 38.9282 424.74 39.649 422.344 41.0908C419.949 42.4914 418.09 44.5099 416.768 47.1463C415.488 49.7414 414.847 52.8514 414.847 56.4769V95.8371Z" fill="#0082D9"/>
<path d="M499.719 96.27C501.04 96.27 502.323 96.1877 503.561 96.0231C504.799 95.8991 505.959 95.755 507.03 95.5904V84.8388C506.082 84.9211 505.236 84.9829 504.49 85.024C503.787 85.0652 502.942 85.0858 501.949 85.0858C498.603 85.0858 496.21 84.3032 494.766 82.7377C493.316 81.1315 492.594 78.5154 492.594 74.8903V39.2991H507.03V28.7329H492.594V11.8022H478.84V28.7329H468.306V39.2991H478.84V78.1655C478.84 84.5918 480.472 89.2258 483.735 92.0683C487.039 94.8696 492.368 96.27 499.719 96.27Z" fill="#0082D9"/>
</svg>
