<svg width="416" height="58" viewBox="0 0 416 58" fill="none" xmlns="http://www.w3.org/2000/svg">
<path d="M34.9741 1.3877C37.5622 1.83991 40.074 2.64815 42.4365 3.78901C38.9184 6.59394 34.5379 8.12085 30.0231 8.11584C25.5063 8.12213 21.1234 6.59516 17.604 3.78901C19.9684 2.64766 22.482 1.83941 25.0721 1.3877C26.6535 1.98304 28.3314 2.28771 30.0231 2.28679C31.7149 2.28771 33.3925 1.98304 34.9741 1.3877Z" fill="#3AF1A3"/>
<path d="M48.4077 7.65527C50.0126 9.00768 51.462 10.5316 52.7295 12.1994C46.6037 17.969 38.4732 21.1811 30.023 21.1697C21.5728 21.1811 13.4422 17.969 7.31641 12.1994C8.58264 10.5318 10.0307 9.00789 11.6344 7.65527C16.5935 12.3307 23.1789 14.9334 30.023 14.9229C36.8658 14.9324 43.4496 12.3298 48.4077 7.65527Z" fill="#3AF1A3"/>
<path d="M3.88667 18.0786C3.05978 19.9994 2.45315 22.0062 2.07825 24.0613C8.643 25.98 14.2103 30.3306 17.6247 36.2102C21.0533 42.0829 22.0684 49.039 20.4593 55.6342C22.443 56.3364 24.4999 56.8162 26.5913 57.0653C28.5692 48.9223 27.3098 40.3371 23.0745 33.0896C18.8601 25.8296 11.9898 20.4549 3.88667 18.0786Z" fill="#3AF1A3"/>
<path d="M3.31971 38.7239C2.42305 36.2755 1.87481 33.7154 1.6908 31.1172C5.90074 32.7333 9.42529 35.7297 11.6778 39.608C13.9415 43.4805 14.7985 48.0047 14.1061 52.4274C11.9292 50.9636 9.96675 49.2089 8.27448 47.2126C8.0019 45.5632 7.4295 43.9766 6.58509 42.5299C5.73917 41.075 4.63261 39.7851 3.31971 38.7239Z" fill="#3AF1A3"/>
<path d="M42.4231 36.2102C45.8376 30.3306 51.4049 25.98 57.9696 24.0613C57.5948 22.0062 56.9881 19.9994 56.1611 18.0786C48.0615 20.4622 41.1921 25.833 36.967 33.0856C32.7419 40.3381 31.4829 48.9203 33.4491 57.0653C35.5404 56.8162 37.5973 56.3364 39.581 55.6342C37.9742 49.0381 38.9919 42.0819 42.4231 36.2102Z" fill="#3AF1A3"/>
<path d="M56.7281 38.7295C54.0863 40.8678 52.3243 43.8896 51.7733 47.2257C50.0804 49.2186 48.1181 50.9702 45.9418 52.431C45.2564 48.0087 46.1126 43.4867 48.3694 39.6117C50.6262 35.7369 54.1486 32.7404 58.3552 31.1172C58.1722 33.7171 57.6247 36.2792 56.7281 38.7295Z" fill="#3AF1A3"/>
<path d="M407.923 32.3193C408.803 32.3193 409.577 32.4953 410.245 32.8471C410.914 33.1851 411.438 33.6286 411.821 34.1775V32.5094H414.825V44.2921C414.825 45.3759 414.606 46.3403 414.165 47.1849C413.725 48.0435 413.065 48.7192 412.185 49.212C411.303 49.7188 410.238 49.9722 408.988 49.9722C407.312 49.9722 405.935 49.585 404.855 48.8109C403.79 48.0366 403.187 46.9808 403.044 45.6435H406.006C406.162 46.1784 406.496 46.6007 407.008 46.9104C407.532 47.2342 408.165 47.396 408.903 47.396C409.77 47.396 410.473 47.1356 411.012 46.6148C411.551 46.1081 411.821 45.3338 411.821 44.2921V42.4761C411.438 43.025 410.906 43.4826 410.224 43.8486C409.556 44.2146 408.789 44.3976 407.923 44.3976C406.929 44.3976 406.02 44.1442 405.196 43.6375C404.373 43.1307 403.72 42.4196 403.237 41.5048C402.767 40.5756 402.534 39.5129 402.534 38.3161C402.534 37.1337 402.767 36.0851 403.237 35.17C403.72 34.255 404.365 33.5511 405.174 33.0584C405.999 32.5656 406.915 32.3193 407.923 32.3193ZM411.821 38.3585C411.821 37.6404 411.68 37.0282 411.395 36.5214C411.112 36.0006 410.729 35.6064 410.245 35.3388C409.762 35.0573 409.244 34.9166 408.689 34.9166C408.136 34.9166 407.624 35.0504 407.156 35.3177C406.688 35.5853 406.305 35.9793 406.006 36.5004C405.721 37.0071 405.581 37.6124 405.581 38.3161C405.581 39.0201 405.721 39.6395 406.006 40.1745C406.305 40.6953 406.688 41.0965 407.156 41.378C407.64 41.6597 408.15 41.8004 408.689 41.8004C409.244 41.8004 409.762 41.6666 410.245 41.3992C410.729 41.1175 411.112 40.7233 411.395 40.2166C411.68 39.6958 411.821 39.0763 411.821 38.3585Z" fill="#B9B9C0"/>
<path d="M397.671 34.3287C398.054 33.7093 398.551 33.2236 399.162 32.8716C399.788 32.5197 400.498 32.3438 401.294 32.3438V35.4477H400.504C399.568 35.4477 398.857 35.666 398.374 36.1023C397.906 36.5387 397.671 37.2989 397.671 38.3829V44.2109H394.69V32.5127H397.671V34.3287Z" fill="#B9B9C0"/>
<path d="M386.345 44.3976C385.208 44.3976 384.186 44.1513 383.277 43.6585C382.368 43.1518 381.651 42.4409 381.125 41.5259C380.613 40.6108 380.359 39.555 380.359 38.3585C380.359 37.1619 380.621 36.1062 381.147 35.1911C381.686 34.2761 382.418 33.5721 383.34 33.0795C384.265 32.5728 385.293 32.3193 386.429 32.3193C387.566 32.3193 388.596 32.5728 389.519 33.0795C390.441 33.5721 391.165 34.2761 391.691 35.1911C392.23 36.1062 392.502 37.1619 392.502 38.3585C392.502 39.555 392.225 40.6108 391.67 41.5259C391.131 42.4409 390.391 43.1518 389.455 43.6585C388.531 44.1513 387.494 44.3976 386.345 44.3976ZM386.345 41.8215C386.884 41.8215 387.388 41.6948 387.856 41.4414C388.34 41.174 388.723 40.7798 389.006 40.259C389.291 39.7381 389.434 39.1046 389.434 38.3585C389.434 37.2464 389.135 36.3946 388.538 35.8034C387.957 35.1981 387.238 34.8955 386.387 34.8955C385.536 34.8955 384.817 35.1981 384.236 35.8034C383.668 36.3946 383.383 37.2464 383.383 38.3585C383.383 39.4705 383.66 40.3293 384.215 40.9347C384.783 41.5259 385.491 41.8215 386.345 41.8215Z" fill="#B9B9C0"/>
<path d="M376.89 44.3595C376.351 44.3595 375.904 44.1977 375.548 43.8738C375.207 43.5361 375.038 43.1208 375.038 42.628C375.038 42.1354 375.207 41.727 375.548 41.4032C375.904 41.0655 376.351 40.8965 376.89 40.8965C377.416 40.8965 377.849 41.0655 378.19 41.4032C378.531 41.727 378.701 42.1354 378.701 42.628C378.701 43.1208 378.531 43.5361 378.19 43.8738C377.849 44.1977 377.416 44.3595 376.89 44.3595Z" fill="#B9B9C0"/>
<path d="M373.811 20.8135L366.91 44.2099H360.476L356.173 27.8663L351.869 44.2099H345.394L338.449 20.8135H344.498L348.673 38.6353L353.19 20.8135H359.495L363.927 38.593L368.102 20.8135H373.811Z" fill="#3AF1A3"/>
<path d="M324.403 44.5866C322.13 44.5866 320.085 44.094 318.267 43.1086C316.451 42.0949 315.016 40.6731 313.964 38.8432C312.942 37.0131 312.431 34.9016 312.431 32.5085C312.431 30.1152 312.955 28.0036 314.007 26.1737C315.087 24.3436 316.549 22.936 318.396 21.9505C320.241 20.9369 322.302 20.4302 324.572 20.4302C326.845 20.4302 328.906 20.9369 330.751 21.9505C332.598 22.936 334.046 24.3436 335.098 26.1737C336.176 28.0036 336.715 30.1152 336.715 32.5085C336.715 34.9016 336.163 37.0131 335.055 38.8432C333.975 40.6731 332.498 42.0949 330.624 43.1086C328.777 44.094 326.704 44.5866 324.403 44.5866ZM324.403 39.4345C325.481 39.4345 326.491 39.181 327.429 38.6743C328.393 38.1393 329.16 37.3509 329.728 36.3092C330.296 35.2675 330.581 34.0006 330.581 32.5085C330.581 30.2842 329.984 28.5809 328.792 27.3983C327.627 26.1876 326.192 25.5823 324.488 25.5823C322.783 25.5823 321.35 26.1876 320.185 27.3983C319.049 28.5809 318.481 30.2842 318.481 32.5085C318.481 34.7326 319.035 36.45 320.143 37.6606C321.279 38.8432 322.699 39.4345 324.403 39.4345Z" fill="#3AF1A3"/>
<path d="M298.832 20.4795C301.644 20.4795 303.917 21.3663 305.65 23.14C307.382 24.8856 308.248 27.3351 308.248 30.4884V44.2137H302.284V31.2907C302.284 29.4326 301.816 28.0108 300.878 27.0254C299.94 26.0117 298.663 25.505 297.043 25.505C295.397 25.505 294.089 26.0117 293.124 27.0254C292.186 28.0108 291.718 29.4326 291.718 31.2907V44.2137H285.753V20.8172H291.718V23.7314C292.513 22.7177 293.521 21.9295 294.742 21.3663C295.992 20.7751 297.355 20.4795 298.832 20.4795Z" fill="#3AF1A3"/>
<path d="M282.526 20.8135L275.623 44.2099H269.191L264.886 27.8663L260.584 44.2099H254.107L247.162 20.8135H253.213L257.389 38.6353L261.905 20.8135H268.21L272.642 38.593L276.817 20.8135H282.526Z" fill="#38453C"/>
<path d="M233.116 44.5866C230.843 44.5866 228.798 44.094 226.98 43.1086C225.162 42.0949 223.727 40.6731 222.678 38.8432C221.655 37.0131 221.143 34.9016 221.143 32.5085C221.143 30.1152 221.668 28.0036 222.72 26.1737C223.798 24.3436 225.262 22.936 227.107 21.9505C228.954 20.9369 231.013 20.4302 233.286 20.4302C235.558 20.4302 237.617 20.9369 239.464 21.9505C241.309 22.936 242.759 24.3436 243.809 26.1737C244.889 28.0036 245.429 30.1152 245.429 32.5085C245.429 34.9016 244.874 37.0131 243.766 38.8432C242.688 40.6731 241.211 42.0949 239.335 43.1086C237.49 44.094 235.416 44.5866 233.116 44.5866ZM233.116 39.4345C234.195 39.4345 235.204 39.181 236.14 38.6743C237.107 38.1393 237.873 37.3509 238.441 36.3092C239.009 35.2675 239.293 34.0006 239.293 32.5085C239.293 30.2842 238.697 28.5809 237.503 27.3983C236.34 26.1876 234.905 25.5823 233.201 25.5823C231.496 25.5823 230.062 26.1876 228.896 27.3983C227.762 28.5809 227.194 30.2842 227.194 32.5085C227.194 34.7326 227.747 36.45 228.854 37.6606C229.99 38.8432 231.412 39.4345 233.116 39.4345Z" fill="#38453C"/>
<path d="M211.372 24.4492C212.141 23.2105 213.135 22.239 214.356 21.5353C215.605 20.8314 217.025 20.4795 218.616 20.4795V26.6874H217.04C215.164 26.6874 213.745 27.124 212.778 27.9967C211.842 28.8694 211.372 30.3898 211.372 32.5578V44.2137H205.408V20.8172H211.372V24.4492Z" fill="#38453C"/>
<path d="M194.149 24.4492C194.915 23.2105 195.909 22.239 197.132 21.5353C198.382 20.8314 199.801 20.4795 201.392 20.4795V26.6874H199.815C197.941 26.6874 196.522 27.124 195.555 27.9967C194.617 28.8694 194.149 30.3898 194.149 32.5578V44.2137H188.184V20.8172H194.149V24.4492Z" fill="#38453C"/>
<path d="M171.495 44.5866C169.223 44.5866 167.177 44.094 165.36 43.1086C163.542 42.0949 162.107 40.6731 161.057 38.8432C160.034 37.0131 159.523 34.9016 159.523 32.5085C159.523 30.1152 160.048 28.0036 161.099 26.1737C162.179 24.3436 163.641 22.936 165.487 21.9505C167.334 20.9369 169.393 20.4302 171.665 20.4302C173.938 20.4302 175.997 20.9369 177.843 21.9505C179.689 22.936 181.138 24.3436 182.189 26.1737C183.268 28.0036 183.808 30.1152 183.808 32.5085C183.808 34.9016 183.254 37.0131 182.146 38.8432C181.067 40.6731 179.59 42.0949 177.715 43.1086C175.869 44.094 173.796 44.5866 171.495 44.5866ZM171.495 39.4345C172.574 39.4345 173.583 39.181 174.52 38.6743C175.486 38.1393 176.253 37.3509 176.821 36.3092C177.389 35.2675 177.673 34.0006 177.673 32.5085C177.673 30.2842 177.076 28.5809 175.883 27.3983C174.719 26.1876 173.284 25.5823 171.58 25.5823C169.876 25.5823 168.441 26.1876 167.277 27.3983C166.141 28.5809 165.573 30.2842 165.573 32.5085C165.573 34.7326 166.127 36.45 167.234 37.6606C168.371 38.8432 169.791 39.4345 171.495 39.4345Z" fill="#38453C"/>
<path d="M145.682 20.4795C148.579 20.4795 150.908 21.3663 152.669 23.14C154.459 24.8856 155.353 27.3351 155.353 30.4884V44.2137H149.389V31.2907C149.389 29.4608 148.92 28.0671 147.983 27.1099C147.045 26.1244 145.767 25.6316 144.148 25.6316C142.529 25.6316 141.237 26.1244 140.271 27.1099C139.334 28.0671 138.865 29.4608 138.865 31.2907V44.2137H132.9V31.2907C132.9 29.4608 132.431 28.0671 131.494 27.1099C130.557 26.1244 129.278 25.6316 127.66 25.6316C126.012 25.6316 124.706 26.1244 123.74 27.1099C122.802 28.0671 122.334 29.4608 122.334 31.2907V44.2137H116.369V20.8172H122.334V23.6469C123.101 22.6615 124.081 21.8872 125.274 21.3242C126.495 20.761 127.83 20.4795 129.278 20.4795C131.125 20.4795 132.772 20.8737 134.221 21.6619C135.669 22.4221 136.791 23.52 137.587 24.9559C138.354 23.6045 139.461 22.5207 140.91 21.7041C142.387 20.8876 143.978 20.4795 145.682 20.4795Z" fill="#38453C"/>
<path d="M99.6809 44.5866C97.4085 44.5866 95.3636 44.094 93.5457 43.1086C91.7278 42.0949 90.2934 40.6731 89.2424 38.8432C88.2199 37.0131 87.7086 34.9016 87.7086 32.5085C87.7086 30.1152 88.2342 28.0036 89.285 26.1737C90.3645 24.3436 91.8272 22.936 93.6734 21.9505C95.5198 20.9369 97.579 20.4302 99.8514 20.4302C102.124 20.4302 104.183 20.9369 106.029 21.9505C107.875 22.936 109.324 24.3436 110.375 26.1737C111.454 28.0036 111.994 30.1152 111.994 32.5085C111.994 34.9016 111.44 37.0131 110.332 38.8432C109.253 40.6731 107.776 42.0949 105.901 43.1086C104.055 44.094 101.982 44.5866 99.6809 44.5866ZM99.6809 39.4345C100.76 39.4345 101.769 39.181 102.706 38.6743C103.672 38.1393 104.439 37.3509 105.007 36.3092C105.575 35.2675 105.859 34.0006 105.859 32.5085C105.859 30.2842 105.262 28.5809 104.069 27.3983C102.905 26.1876 101.47 25.5823 99.7661 25.5823C98.0618 25.5823 96.6276 26.1876 95.463 27.3983C94.3267 28.5809 93.7587 30.2842 93.7587 32.5085C93.7587 34.7326 94.3126 36.45 95.4204 37.6606C96.5565 38.8432 97.9767 39.4345 99.6809 39.4345Z" fill="#38453C"/>
<path d="M79.6265 25.6712V36.9893C79.6265 37.7777 79.811 38.3548 80.1802 38.7208C80.5779 39.0587 81.2312 39.2275 82.1402 39.2275H84.9095V44.2109H81.1603C76.1326 44.2109 73.6189 41.7895 73.6189 36.9471V25.6712H70.8069V20.8146H73.6189V15.0288H79.6265V20.8146H84.9095V25.6712H79.6265Z" fill="#38453C"/>
</svg>
