<svg width="56" height="55" viewBox="0 0 56 55" fill="none" xmlns="http://www.w3.org/2000/svg">
<circle cx="28" cy="27.5" r="27.5" fill="#3AF1A3"/>
<path d="M14.25 39.875V37.125L17 34.375V39.875H14.25ZM19.75 39.875V31.625L22.5 28.875V39.875H19.75ZM25.25 39.875V28.875L28 31.6594V39.875H25.25ZM30.75 39.875V31.6594L33.5 28.9094V39.875H30.75ZM36.25 39.875V26.125L39 23.375V39.875H36.25ZM14.25 32.7594V28.875L23.875 19.25L29.375 24.75L39 15.125V19.0094L29.375 28.6344L23.875 23.1344L14.25 32.7594Z" fill="#38453C"/>
<path d="M36.25 15.125H40.375V19.9375" stroke="#38453C" stroke-width="2" stroke-linecap="round"/>
</svg>
